HIERARCHY
ROOT pelvis
{
  OFFSET 0 100 0
  CHANNELS 6 Xposition Yposition Zposition Zrotation Xrotation Yrotation
  JOINT pelvis_right_femur
  {
    OFFSET -10.78128 -3.44521 -0.5502486
    CHANNELS 3 Zrotation Xrotation Yrotation
    JOINT right_femur_tibia
    {
      OFFSET -0.8047443 -44.0398 -0.1307829
      CHANNELS 3 Zrotation Xrotation Yrotation
      JOINT right_tibia_foot
      {
        OFFSET 3.006224 -47.83518 -5
        CHANNELS 3 Zrotation Xrotation Yrotation
        End Site
        {
          OFFSET 0 -5 15
        }
      }
    }
  }
  JOINT pelvis_left_femur
  {
    OFFSET 10.78128 -3.44521 -0.5502486
    CHANNELS 3 Zrotation Xrotation Yrotation
    JOINT left_femur_tibia
    {
      OFFSET 0.8047443 -44.0398 -0.1307829
      CHANNELS 3 Zrotation Xrotation Yrotation
      JOINT left_tibia_foot
      {
        OFFSET -4.370144 -48.10324 -4.275266
        CHANNELS 3 Zrotation Xrotation Yrotation
        End Site
        {
          OFFSET 0 -5 15
        }
      }
    }
  }
  JOINT pelvis_spine1
  {
    OFFSET 0 6.468898 -3.129235
    CHANNELS 3 Zrotation Xrotation Yrotation
    JOINT spine1
    {
      OFFSET 0 23.15396 4.99043
      CHANNELS 3 Zrotation Xrotation Yrotation
      JOINT spine2
      {
        OFFSET 0 20.79997 -5.064912
        CHANNELS 3 Zrotation Xrotation Yrotation
        JOINT neck
        {
          OFFSET 0 14.38658 9.616178
          CHANNELS 3 Zrotation Xrotation Yrotation
          End Site
          {
            OFFSET 0 20 0
          }
        }
      }
      JOINT right_manubrium
      {
        OFFSET -5.722621 16.35077 3.967754
        CHANNELS 3 Zrotation Xrotation Yrotation
        JOINT right_clavicle
        {
          OFFSET -13.16364 1.694482 -4.693211
          CHANNELS 3 Zrotation Xrotation Yrotation
          JOINT right_humerus
          {
            OFFSET -28.5034 -0.3100689 -2.792744
            CHANNELS 3 Zrotation Xrotation Yrotation
            JOINT right_radius
            {
              OFFSET -25.15693 0.02248979 -1.271978
              CHANNELS 3 Zrotation Xrotation Yrotation
              End Site
              {
                OFFSET -15 0 0
              }
            }
          }
        }
      }
      JOINT left_manubrium
      {
        OFFSET 5.722621 16.35077 3.967754
        CHANNELS 3 Zrotation Xrotation Yrotation
        JOINT left_clavicle
        {
          OFFSET 13.16364 1.694482 -4.693211
          CHANNELS 3 Zrotation Xrotation Yrotation
          JOINT left_humerus
          {
            OFFSET 29.39168 -1.063119 -2.237045
            CHANNELS 3 Zrotation Xrotation Yrotation
            JOINT left_radius
            {
              OFFSET 24.59957 -0.9528479 0.9047498
              CHANNELS 3 Zrotation Xrotation Yrotation
              End Site
              {
                OFFSET 15 -0 -0
              }
            }
          }
        }
      }
    }
  }
}
MOTION
Frames: 17
Frame Time: 0.0416666666667
0 103.5113 0 1.211636 -3.643366 -0.09314484 2.722282 -12.38037 8.071434 -0 39.05132 -0 -6.837527 -16.92624 -4.500941 -6.486199 12.18512 -23.30557 -0 5.033771 -0 8.216567 -15.13053 27.02892 -2.109905 -2.814136 5.481845 3.063002 8.791951 -7.45316 1.314334 20.89126 6.02591 2.654357 -26.18357 8.949729 5.52237 -19.93024 10.83692 84.42346 35.25878 -18.35379 -0 0 16.3544 -4.425695 5.992595 4.209629 5.851618 -20.04532 -0.1692746 -94.36264 26.08145 23.90155 0 0 -16.67847 9.915204 14.03707 3.474424
0.2804824 103.4901 1.594397 1.105488 -2.859524 -0.2408526 3.047702 -14.00647 8.57477 -0 38.90978 -0 -6.278295 -17.28738 -4.398949 -6.608533 12.23715 -23.64835 -0 4.894368 -0 7.917476 -15.95593 27.00595 -2.155875 -2.848121 5.580516 3.000163 8.711991 -7.34334 1.336025 20.97558 5.959293 2.610102 -26.07768 8.919216 5.4918 -20.0393 10.7776 84.12261 35.23719 -17.9479 -0 0 16.62679 -4.498155 5.933627 4.271607 5.760633 -19.89145 -0.1112064 -94.60065 26.30061 24.27713 0 0 -16.28667 9.664942 14.15675 3.78299
0.5299293 103.2966 3.411064 0.8697302 -1.930202 -0.3027092 3.277619 -17.57936 7.628352 -0 35.4821 -0 -6.318656 -14.20935 -3.556381 -6.661735 12.48234 -22.92758 -0 5.149565 -0 6.246464 -18.33853 25.94784 -1.970665 -2.607326 5.10109 3.147428 8.953943 -7.720182 1.26468 20.7701 6.34969 2.836875 -26.37667 9.111381 5.60082 -19.42964 10.97204 85.42639 35.50974 -19.54536 -0 0 15.2232 -4.724411 6.588883 4.271766 6.06914 -20.43935 -0.3692957 -93.71941 26.15941 22.7478 0 0 -18.09639 9.768609 13.88607 3.751294
0.7571097 102.929 5.440701 0.6712967 -1.125091 -0.2704022 3.553346 -20.63153 6.896352 -0 32.34387 -0 -6.253687 -12.02201 -2.994538 -6.659428 12.66105 -22.12748 -0 5.206984 -0 5.218443 -20.02861 24.95341 -1.838129 -2.44084 4.754265 3.263601 9.14035 -8.005703 1.212233 20.6093 6.622687 2.99309 -26.58278 9.244713 5.675988 -18.98836 11.11559 86.38939 35.67812 -20.72 -0 0 14.20179 -4.902447 7.08336 4.27464 6.290488 -20.85498 -0.5602861 -93.0355 25.96272 21.59223 0 0 -19.41993 9.911415 13.65916 3.633598
0.9697592 102.3752 7.743413 0.4920994 -0.2708917 -0.1479986 4.006329 -23.79097 6.230283 -0 28.68164 -0 -6.024698 -10.21254 -2.571947 -6.64798 12.89777 -21.06736 -0 5.279425 -0 4.918405 -21.29327 23.95959 -1.698524 -2.27018 4.382564 3.386485 9.323803 -8.313893 1.162596 20.44726 6.906118 3.145454 -26.78866 9.392607 5.751011 -18.51396 11.2564 87.4331 35.84746 -21.98777 -0 0 13.10469 -5.09828 7.641091 4.284782 6.507585 -21.29305 -0.7572001 -92.31985 25.83534 20.37436 0 0 -20.86752 9.968535 13.44239 3.64286
1.17458 101.6456 10.38358 0.3011774 0.5858647 0.05895099 4.543992 -26.77949 5.58401 -0 24.81339 -0 -5.814184 -8.528305 -2.206684 -6.609227 13.15366 -19.84116 -0 5.568067 -0 4.981373 -22.15168 22.9137 -1.576949 -2.116925 4.048232 3.49459 9.493032 -8.592644 1.118077 20.30225 7.157838 3.27751 -26.94592 9.520363 5.813104 -18.08096 11.38166 88.37664 35.98611 -23.11653 -0 0 12.10712 -5.33755 8.191385 4.320831 6.693919 -21.69363 -0.9403079 -91.64277 25.67704 19.24465 0 0 -22.17284 10.01973 13.23314 3.64341
1.379766 100.7852 13.43281 0.04117024 1.570997 0.3523628 5.208234 -29.66899 5.013764 -0 20.87948 -0 -5.695217 -6.850093 -1.819199 -6.530655 13.36463 -18.51132 -0 6.274861 -0 5.157776 -22.64603 21.69632 -1.476281 -1.978719 3.758597 3.575412 9.635442 -8.826633 1.081225 20.18863 7.377374 3.387983 -27.04131 9.627526 5.860756 -17.69643 11.48403 89.18902 36.10835 -24.06323 -0 0 11.23225 -5.639315 8.739193 4.396848 6.838481 -22.03397 -1.105011 -91.04161 25.56539 18.25621 0 0 -23.3029 9.985274 13.0586 3.740979
1.5935 99.86565 16.96991 -0.3302208 2.675425 0.737436 5.982036 -32.26954 4.527358 -0 17.16015 -0 -5.814597 -5.062265 -1.357596 -6.378535 13.47499 -17.12939 -0 7.683677 -0 5.192043 -22.695 20.19838 -1.401399 -1.855643 3.526896 3.620933 9.750648 -9.000876 1.051161 20.11129 7.560262 3.478323 -27.06348 9.705731 5.892346 -17.37474 11.56294 89.82546 36.21662 -24.77001 -0 0 10.51727 -6.021221 9.26937 4.52221 6.939023 -22.29929 -1.249828 -90.53197 25.47754 17.44168 0 0 -24.19258 9.882924 12.9166 3.902825
1.823192 98.99222 21.07742 -0.8461366 3.849058 1.216036 6.848301 -34.32436 4.161352 -0 14.00103 -0 -6.292798 -3.154833 -0.8039843 -6.113306 13.44788 -15.7647 -0 10.1494 -0 4.842012 -22.16543 18.34106 -1.353503 -1.745433 3.358979 3.624399 9.836222 -9.106089 1.027812 20.07507 7.707092 3.550594 -27.00654 9.752576 5.90763 -17.12185 11.61754 90.26455 36.31863 -25.20897 -0 0 9.979709 -6.49619 9.77849 4.704801 6.9934 -22.47874 -1.37417 -90.12933 25.43079 16.82657 0 0 -24.81493 9.693542 12.81282 4.151434
2.07284 98.29589 25.82967 -1.489765 4.881061 1.766249 7.723255 -35.38037 3.908429 -0 11.82398 -0 -7.22954 -1.196985 -0.2005242 -5.702458 13.28642 -14.48421 -0 14.12551 -0 3.942137 -20.85563 16.16108 -1.334005 -1.645907 3.260971 3.580233 9.892748 -9.133865 1.01041 20.0826 7.81857 3.607741 -26.86499 9.764828 5.905966 -16.94316 11.64867 90.48565 36.41811 -25.3526 -0 0 9.635251 -7.080908 10.26216 4.95301 7.001616 -22.56471 -1.478549 -89.84192 25.41962 16.42695 0 0 -25.14259 9.417733 12.74516 4.481264
2.339346 97.92653 31.26394 -2.160398 5.39944 2.313201 8.454726 -34.86624 3.717064 -0 11.03719 -0 -8.623879 0.6336436 0.3299517 -5.148075 13.00326 -13.34119 -0 20.09496 -0 2.487349 -18.57916 13.88878 -1.343925 -1.55506 3.238985 3.482702 9.920301 -9.07627 0.998553 20.13659 7.895609 3.652126 -26.63307 9.740166 5.886264 -16.84368 11.65699 90.47064 36.51676 -25.17586 -0 0 9.498293 -7.794526 10.71931 5.276611 6.962622 -22.54962 -1.563295 -89.67857 25.44457 16.25967 0 0 -25.15438 9.047616 12.71182 4.898974
2.606547 98.03521 37.32883 -2.655166 4.935623 2.713576 8.860899 -32.25236 3.506107 -0 11.82871 -0 -10.29553 2.077298 0.5938498 -4.512849 12.51445 -12.33686 -0 28.3575 -0 0.7080266 -15.32384 11.97476 -1.384995 -1.471795 3.301618 3.325432 9.918915 -8.923891 0.9920593 20.23994 7.937901 3.685326 -26.30344 9.675696 5.84632 -16.83059 11.64307 90.19679 36.61153 -24.64677 -0 0 9.587855 -8.660624 11.14814 5.687593 6.874239 -22.42448 -1.628031 -89.64945 25.50055 16.34503 0 0 -24.82445 8.577161 12.70863 5.407963
2.840204 98.73963 43.82594 -2.751083 3.198495 2.811366 8.861642 -27.3985 3.258092 -0 13.86664 -0 -11.84779 2.831734 0.4213927 -3.906416 11.44689 -11.3946 -0 38.57738 -0 -1.0027 -11.46098 10.93051 -1.45931 -1.396601 3.460362 3.101622 9.887735 -8.666112 0.9913119 20.39571 7.943458 3.707383 -25.86844 9.568584 5.782807 -16.91428 11.60703 89.63772 36.69342 -23.72836 -0 0 9.929084 -9.703452 11.54507 6.198789 6.73241 -22.1782 -1.670883 -89.76894 25.58356 16.71087 0 0 -24.12477 7.996653 12.7306 6.016995
2.995426 100.0452 50.40589 -2.381542 0.4280387 2.55556 8.561734 -20.88432 3.055293 -0 16.11937 -0 -12.782 2.603425 -0.177287 -3.397406 9.081688 -10.37355 -0 49.24412 -0 -2.300536 -7.784521 11.01097 -1.568655 -1.332263 3.728628 2.805758 9.825504 -8.293276 0.9972815 20.60564 7.908623 3.716475 -25.32326 9.417009 5.691537 -17.10769 11.54903 88.76909 36.74521 -22.38666 -0 0 10.5504 -10.94162 11.90286 6.820555 6.532042 -21.79982 -1.688242 -90.05404 25.68886 17.38917 0 0 -23.03231 7.296619 12.7707 6.736352
3.048675 101.7438 56.69639 -1.72662 -2.565167 2.031896 8.157184 -13.91534 2.949383 -0 17.1833 -0 -12.78264 1.227331 -0.9427179 -2.90716 4.785562 -9.13743 -0 57.69889 -0 -3.02259 -5.163817 12.00368 -1.712507 -1.283883 4.116643 2.437553 9.732255 -7.80299 1.011266 20.8669 7.829848 3.709134 -24.67198 9.222627 5.568747 -17.42128 11.47054 87.58651 36.74135 -20.61505 -0 0 11.46984 -12.3775 12.21266 7.554598 6.269699 -21.28569 -1.675901 -90.51589 25.80965 18.40059 0 0 -21.55181 6.473354 12.8181 7.573416
3.033555 103.4276 62.51317 -1.072967 -4.917899 1.356825 7.777066 -7.636313 2.82702 -0 16.18236 -0 -11.97487 -1.127578 -1.513662 -2.236828 -1.257059 -7.635535 -0 61.36163 -0 -3.12307 -3.973637 13.37632 -1.885443 -1.257208 4.622299 2.007163 9.612524 -7.208961 1.034047 21.1679 7.707347 3.681831 -23.93438 8.993344 5.413387 -17.85327 11.3762 86.13094 36.65263 -18.46794 -0 0 12.67166 -13.98623 12.46915 8.387023 5.948673 -20.65041 -1.632103 -91.14356 25.93068 19.72573 0 0 -19.74511 5.541455 12.85563 8.518699
3.030786 104.6884 67.93017 -0.6146448 -6.271606 0.6064306 7.441877 -2.468195 2.525545 -0 13.47135 -0 -10.84627 -3.994665 -1.689005 -1.242798 -7.960934 -5.959131 -0 59.36568 -0 -2.64541 -3.866267 14.6517 -2.075761 -1.255188 5.22278 1.537722 9.477657 -6.545848 1.064854 21.48685 7.548719 3.633625 -23.14837 8.74417 5.229477 -18.3808 11.27485 84.50261 36.45772 -16.07905 -0 0 14.08801 -15.7106 12.67533 9.285379 5.583589 -19.93345 -1.560882 -91.8909 26.02494 21.28223 0 0 -17.74264 4.54418 12.86095 9.532228
